<svg width="232" height="116" viewBox="0 0 232 116" fill="none" xmlns="http://www.w3.org/2000/svg">
<path d="M52.392 51.984V90.64C52.392 97.296 53.416 98.832 64.424 98.832C69.16 98.832 75.944 98.448 82.088 97.936C95.272 96.912 96.168 96.144 100.52 79.504C103.592 82.704 108.328 85.008 112.68 86.416C105.896 106.384 105.128 107.152 82.216 108.56C75.944 108.944 69.288 109.2 64.296 109.2C42.152 109.2 40.744 107.792 40.744 90.896V54.8C25.256 58.384 11.688 61.968 2.728 64.656L0.0400004 52.752C10.28 51.216 25 48.144 40.744 44.432V23.312C40.744 12.432 40.616 6.41599 40.232 1.67999C44.328 2.448 51.496 2.95999 54.312 2.70399C55.848 2.576 56.488 3.216 54.824 5.52C53.288 7.56799 52.392 11.664 52.392 16.656V41.744L78.76 35.6C89.896 33.04 97.192 30.992 110.632 26.64L113.576 38.544C99.368 40.976 92.328 42.512 81.064 45.2L52.392 51.984ZM175.912 23.184H217.128C224.168 23.184 228.392 22.8 231.848 22.288C228.648 46.096 220.968 67.216 209.32 80.912C196.264 96.272 176.936 106 143.784 115.6C140.968 110.352 138.152 106.384 134.568 103.056C153.512 101.648 177.576 93.072 192.168 81.68C183.208 73.232 172.84 65.168 163.88 59.664L169.768 51.216C180.52 58.512 190.248 65.808 200.232 73.872C207.656 64.144 214.056 48.272 216.744 34.064H170.28C164.136 45.2 156.072 56.336 147.88 65.808C146.216 63.504 140.712 60.816 135.592 59.92C152.616 45.072 166.056 23.568 171.432 0.527992C175.272 1.936 183.08 3.856 186.024 3.98399C189.096 4.11199 189.352 5.008 186.792 6.544C185.128 7.56799 181.288 12.816 175.912 23.184Z" fill="#F1001E"/>
</svg>
