<svg width="361" height="119" viewBox="0 0 361 119" fill="none" xmlns="http://www.w3.org/2000/svg">
<path d="M83.224 75.104H52.632V93.792C52.632 99.552 53.144 109.792 53.912 116.832H40.216C40.856 110.688 41.496 99.552 41.496 93.792V75.104H11.8V84.192H0.0240002C0.536001 78.816 0.92 70.496 0.92 65.12V37.472C0.92 32.992 0.536001 27.488 0.0240002 24.288C6.296 25.184 20.12 25.568 41.496 25.696V19.68C41.496 7.64799 41.112 3.424 40.216 0.607994C44.952 1.12 49.176 1.37599 53.784 1.37599C55.832 1.37599 56.216 1.88799 54.168 3.67999C53.144 4.576 52.632 6.88 52.632 10.72V25.696C75.032 25.568 89.112 25.056 95.384 24.288C95.128 27.616 94.744 35.552 94.744 40.032V64.608C94.744 69.728 95.128 77.536 95.384 82.912H83.224V75.104ZM52.632 65.504H83.224V35.296H52.632V65.504ZM11.8 65.504H41.496V35.296H11.8V65.504ZM150.808 40.032C157.336 39.904 163.48 39.52 166.808 39.008V49.632C163.608 49.248 157.72 48.864 150.808 48.736V95.328C150.808 103.776 151.064 110.048 151.832 117.856H140.184C140.824 110.048 141.208 103.648 141.208 95.328V63.2C136.6 77.28 132.632 84.832 124.568 97.504C122.648 93.28 120.344 89.696 117.656 86.624C126.744 76.64 134.808 63.84 139.032 48.608C130.2 48.608 124.312 48.992 120.216 49.632V39.008C124.824 39.648 130.456 40.032 141.208 40.032V20.576C135.576 21.6 129.048 22.752 126.232 23.136C125.336 19.68 124.312 16.992 122.52 14.048C129.56 13.408 136.856 12.384 143 11.104C150.552 9.56799 159.256 6.88 163.608 3.936C165.784 7.90399 168.344 11.36 170.52 13.152C172.696 14.944 172.312 15.712 170.264 15.328C167.96 14.816 164.376 15.2 150.808 18.4V40.032ZM168.856 73.44L160.536 79.712C157.72 74.08 154.776 69.088 151.192 63.712L157.464 59.232C161.816 64.096 165.4 68.32 168.856 73.44ZM197.272 71.136C191.896 93.28 180.76 105.952 164.632 116.832C162.328 114.016 158.872 111.072 155.288 108.384C177.048 95.712 185.88 85.984 190.616 56.928C192.28 46.816 192.28 17.888 190.36 1.12C195.352 1.88799 199.704 2.01599 204.44 1.37599C206.744 1.12 207.128 2.144 205.08 3.936C203.8 5.216 202.264 12.128 202.136 19.68C202.008 28.128 201.624 38.496 200.6 49.632C205.592 82.912 213.656 91.104 234.52 99.68C230.936 104.672 228.888 108.256 227.224 112.992C211.096 103.52 201.624 92.128 197.272 71.136ZM178.456 60.64L168.6 59.872C170.776 49.12 172.184 37.984 172.952 27.232L182.296 28.384C181.4 39.264 179.992 51.04 178.456 60.64ZM229.272 27.744C227.352 29.664 225.048 34.912 217.24 56.8C214.296 55.52 211.224 54.88 207.128 54.752C211.48 46.816 215.448 35.808 217.624 23.264C220.824 24.416 224.536 25.184 228.632 25.44C230.68 25.568 230.808 26.208 229.272 27.744ZM297.24 57.824V96.352C297.24 102.624 297.752 110.688 298.52 118.368H285.208C285.976 110.688 286.488 102.624 286.488 96.352V57.824C277.144 57.824 261.528 58.208 255.896 58.976V47.712C260.76 48.48 283.416 48.864 299.16 48.864C318.232 48.864 337.688 48.352 344.088 47.712L342.808 83.552C342.296 97.504 341.656 98.272 319.128 101.728C318.488 96.992 317.336 93.152 314.776 88.928C330.008 91.36 332.312 88.416 332.44 80.096L332.952 57.824H297.24ZM291.48 16.992H315.288C315.288 8.92799 315.16 5.6 314.52 1.88799C317.976 2.39999 323.352 2.656 326.552 2.656C328.088 2.656 328.344 3.67999 327.064 4.448C325.912 5.088 325.656 5.6 325.656 7.13599V16.992C339.992 16.992 352.408 16.736 360.856 15.968V27.232C352.408 26.464 339.992 26.08 325.656 26.08V41.056H315.288V26.08H291.48V40.928H281.112V26.08C267.16 26.08 254.744 26.464 246.296 27.232V15.968C254.872 16.864 267.032 16.992 281.112 16.992C280.984 10.208 280.728 4.83199 280.344 1.75999C283.8 2.272 289.176 2.52799 292.376 2.52799C293.912 2.52799 294.168 3.55199 292.888 4.31999C291.736 4.95999 291.48 5.47199 291.48 7.008V16.992Z" fill="#FFE71E"/>
</svg>
