<svg width="368" height="120" viewBox="0 0 368 120" fill="none" xmlns="http://www.w3.org/2000/svg">
<path d="M45.296 51.656C45.936 88.52 35.568 101.448 10.224 117.832C7.792 113.608 4.208 109.768 0.112 107.336C26.352 96.712 34.288 84.04 33.648 51.656C21.616 51.656 9.584 51.784 3.312 52.552V40.904C10.736 41.416 24.56 41.8 53.744 41.8C83.056 41.8 97.136 41.416 104.304 40.904V52.552C97.776 52.04 84.464 51.656 72.048 51.656V95.048C72.048 100.552 73.328 100.936 84.976 100.936C96.624 100.936 98.544 98.248 101.744 83.016C105.328 87.368 108.656 89.416 113.008 90.184C107.504 109.512 104.048 111.688 84.208 111.688C63.728 111.688 60.656 108.872 60.656 98.632V51.656H45.296ZM92.784 21.064C84.336 20.424 69.744 20.04 53.872 20.04C38 20.04 23.536 20.424 14.832 21.064V8.90399C23.664 9.672 37.616 10.056 53.488 10.056C69.36 10.056 84.08 9.8 92.784 8.90399V21.064ZM218.608 36.936C220.144 37.96 220.016 38.984 218.224 39.112C215.28 39.368 212.336 40.776 200.432 49.992C199.024 47.816 197.104 45.64 194.288 43.592C201.584 39.752 205.808 35.784 209.776 29.896C213.232 33.224 215.536 35.016 218.608 36.936ZM170.352 41.672L163.312 49.736C158.32 44.872 153.072 40.776 147.184 37.576L153.968 30.536C159.344 33.864 164.72 37.32 170.352 41.672ZM178.416 14.28C177.904 10.184 176.88 6.216 175.728 2.632L187.376 0.455994C188.4 4.424 189.296 9.16 190.064 14.28C217.456 14.28 227.056 13.896 235.76 13V38.216H225.648V22.344H139.376V40.136H129.264V13C137.84 13.896 148.336 14.28 178.416 14.28ZM152.944 70.856H210.8V59.72H152.944V70.856ZM210.8 78.664H152.944V88.776H210.8V78.664ZM177.392 51.656V39.88C177.392 36.168 177.136 31.304 176.496 27.592C180.72 28.232 184.688 28.488 188.784 28.36C190.576 28.36 191.088 29.128 189.552 30.536C188.272 31.816 187.376 33.736 187.376 36.424V51.656C199.664 51.528 213.616 51.016 222.192 50.504C221.68 53.576 221.296 60.744 221.296 65.224V106.312C221.296 114.504 220.4 115.272 201.2 118.344C200.432 114.632 199.152 110.792 196.848 106.44C209.648 106.312 210.8 105.288 210.8 101.064V96.584H152.944V116.808H141.68C142.32 110.536 142.576 105.416 142.576 98.504V65.224C142.576 60.744 142.064 53.832 141.552 50.504C149.744 51.016 164.848 51.528 177.392 51.656ZM304.24 58.824V97.352C304.24 103.624 304.752 111.688 305.52 119.368H292.208C292.976 111.688 293.488 103.624 293.488 97.352V58.824C284.144 58.824 268.528 59.208 262.896 59.976V48.712C267.76 49.48 290.416 49.864 306.16 49.864C325.232 49.864 344.688 49.352 351.088 48.712L349.808 84.552C349.296 98.504 348.656 99.272 326.128 102.728C325.488 97.992 324.336 94.152 321.776 89.928C337.008 92.36 339.312 89.416 339.44 81.096L339.952 58.824H304.24ZM298.48 17.992H322.288C322.288 9.92799 322.16 6.6 321.52 2.88799C324.976 3.39999 330.352 3.656 333.552 3.656C335.088 3.656 335.344 4.67999 334.064 5.448C332.912 6.088 332.656 6.6 332.656 8.13599V17.992C346.992 17.992 359.408 17.736 367.856 16.968V28.232C359.408 27.464 346.992 27.08 332.656 27.08V42.056H322.288V27.08H298.48V41.928H288.112V27.08C274.16 27.08 261.744 27.464 253.296 28.232V16.968C261.872 17.864 274.032 17.992 288.112 17.992C287.984 11.208 287.728 5.83199 287.344 2.75999C290.8 3.272 296.176 3.52799 299.376 3.52799C300.912 3.52799 301.168 4.55199 299.888 5.31999C298.736 5.95999 298.48 6.47199 298.48 8.008V17.992Z" fill="#FFE71E"/>
</svg>
