<svg width="245" height="119" viewBox="0 0 245 119" fill="none" xmlns="http://www.w3.org/2000/svg">
<path d="M82.424 92.512H39.288V103.136H82.424V92.512ZM39.288 85.088H82.424V75.104H39.288V85.088ZM47.608 55.264C44.664 59.488 41.208 63.456 37.368 67.424C43.128 67.68 51.32 67.68 60.792 67.68C69.368 67.68 76.792 67.552 82.68 67.424C78.456 63.584 75.512 59.616 73.464 55.264H47.608ZM52.472 20.192C35.32 20.32 22.392 20.704 12.536 21.472V11.872C22.648 12.64 35.96 13.024 53.624 13.152C54.264 7.26399 54.392 2.39999 53.88 0.351997C57.592 1.632 66.04 2.144 68.472 1.88799C70.264 1.632 70.904 2.784 68.344 5.34399C67.448 6.24 65.912 9.43999 64.504 13.152C83.192 13.152 97.144 12.64 107.768 11.872V21.472C96.888 20.576 82.296 20.192 62.712 20.192C61.944 23.648 61.048 26.976 60.024 30.176H69.368C82.168 30.176 93.176 29.92 102.776 28.896V38.752C93.304 37.856 82.04 37.472 69.24 37.472H57.464C55.928 41.056 54.264 44.512 52.344 47.968H76.92C90.744 47.968 100.984 47.712 112.504 46.816V56.544C102.776 55.776 94.328 55.392 83.704 55.264C89.848 63.712 103.16 69.984 118.264 70.752C115.448 75.616 113.784 79.584 112.376 83.936C104.824 81.12 98.296 78.048 92.92 74.848V99.552C92.92 105.44 93.304 110.944 94.072 116.192H82.424V110.944H39.288V118.24H27.896C28.664 112.992 28.92 109.28 28.92 103.264V75.232C23.288 79.968 16.76 84.576 9.464 89.184C7.672 85.856 4.088 82.144 0.76 79.968C15.352 73.056 27.384 64.992 36.088 55.264C25.336 55.392 16.632 55.776 6.776 56.544V46.816C18.552 47.712 28.024 47.968 41.848 47.968C44.152 44.64 46.072 41.184 47.608 37.472C35.704 37.472 25.464 37.856 16.632 38.752V28.896C26.232 29.792 37.112 30.304 50.168 30.176C51.064 27.104 51.832 23.648 52.472 20.192ZM181.24 57.824V96.352C181.24 102.624 181.752 110.688 182.52 118.368H169.208C169.976 110.688 170.488 102.624 170.488 96.352V57.824C161.144 57.824 145.528 58.208 139.896 58.976V47.712C144.76 48.48 167.416 48.864 183.16 48.864C202.232 48.864 221.688 48.352 228.088 47.712L226.808 83.552C226.296 97.504 225.656 98.272 203.128 101.728C202.488 96.992 201.336 93.152 198.776 88.928C214.008 91.36 216.312 88.416 216.44 80.096L216.952 57.824H181.24ZM175.48 16.992H199.288C199.288 8.92799 199.16 5.6 198.52 1.88799C201.976 2.39999 207.352 2.656 210.552 2.656C212.088 2.656 212.344 3.67999 211.064 4.448C209.912 5.088 209.656 5.6 209.656 7.13599V16.992C223.992 16.992 236.408 16.736 244.856 15.968V27.232C236.408 26.464 223.992 26.08 209.656 26.08V41.056H199.288V26.08H175.48V40.928H165.112V26.08C151.16 26.08 138.744 26.464 130.296 27.232V15.968C138.872 16.864 151.032 16.992 165.112 16.992C164.984 10.208 164.728 4.83199 164.344 1.75999C167.8 2.272 173.176 2.52799 176.376 2.52799C177.912 2.52799 178.168 3.55199 176.888 4.31999C175.736 4.95999 175.48 5.47199 175.48 7.008V16.992Z" fill="#FFE71E"/>
</svg>
