<svg width="370" height="119" viewBox="0 0 370 119" fill="none" xmlns="http://www.w3.org/2000/svg">
<path d="M17.856 79.456L8 80.864C8.384 73.44 6.464 55.392 4.032 50.656L13.248 48.608C14.784 57.312 16.96 71.648 17.856 79.456ZM40.512 37.216C35.648 36.576 29.888 36.32 20.928 36.32C12.096 36.32 5.44 36.576 0.448 37.216V27.616C5.44 28.128 12.224 28.384 21.184 28.384C30.016 28.384 35.904 28.128 40.512 27.616V37.216ZM28.864 23.648L17.088 26.08C16.832 20.704 14.784 13.152 12.352 8.16L24.128 5.6C24.64 10.208 26.944 18.528 28.864 23.648ZM71.872 29.152V13.024C71.872 7.90399 71.488 2.784 71.104 0.479996C74.432 1.12 78.4 1.37599 81.984 1.24799C83.776 1.12 84.032 1.632 82.624 3.16799C81.728 4.19199 81.216 7.008 81.216 10.464V29.152H96.96V14.816C96.96 11.104 96.704 8.41599 96.32 6.62399C99.392 7.008 103.744 7.26399 105.92 7.26399C107.456 7.26399 107.84 7.90399 106.432 9.824C105.664 10.848 105.664 14.816 105.664 36.96C98.752 36.576 90.048 36.32 76.224 36.32C62.912 36.32 54.592 36.576 48.704 36.96C49.216 34.528 49.472 29.792 49.472 26.208V14.944C49.472 11.488 49.088 8.16 48.704 7.008C51.008 7.392 56.384 7.52 58.432 7.26399C60.352 7.008 60.48 7.90399 59.072 9.43999C58.432 10.336 57.92 14.816 57.92 29.152H71.872ZM19.776 92.512C23.104 79.584 26.944 55.264 27.456 45.408C31.296 46.816 34.88 47.456 38.08 47.456C39.104 47.456 39.488 47.84 38.208 49.12C37.568 49.76 32.832 68.832 27.84 90.592C32.32 89.312 36.672 87.776 40.896 85.984C39.744 89.824 39.488 93.792 39.872 96.864C28.608 99.04 12.608 104.416 3.136 108.896C2.752 105.312 1.728 99.552 0.704 95.584C7.488 94.816 13.76 93.792 19.776 92.512ZM71.104 53.088C59.584 53.216 51.008 53.6 44.48 54.24V44.128C52.416 44.896 63.04 45.152 78.272 45.152C93.632 45.152 104.384 44.896 112.448 44.128V54.24C104.768 53.472 94.784 53.088 80.704 53.088C79.296 57.312 78.144 61.28 77.248 66.016C89.152 66.016 99.392 65.632 109.888 64.864C109.504 67.936 109.248 73.44 109.248 76V106.336C109.248 113.248 107.712 115.04 93.376 118.112C93.12 114.4 91.968 110.432 89.664 106.848C98.624 107.104 99.904 106.336 99.904 102.88V72.928H88.896V91.36C88.896 95.712 89.024 100.704 89.408 104.672H80.32C80.832 100.32 80.96 95.712 80.96 91.36V72.928H71.744V91.872C71.744 96.224 71.872 101.472 72.256 105.184H63.04C63.424 101.6 63.68 96.224 63.68 91.872V72.928H54.592V115.68H44.736C45.376 111.584 45.632 107.616 45.632 103.008V76C45.632 72.032 45.248 67.936 44.736 64.992C51.776 65.632 59.84 65.888 68.8 66.016C69.824 61.024 70.464 57.056 71.104 53.088ZM181.952 31.712H160.064C154.176 42.976 150.848 48.096 144.576 55.904C142.656 52.96 138.176 50.784 133.184 50.144C139.968 44.512 146.496 34.4 151.488 23.264C154.56 16.096 156.992 8.672 158.4 1.75999C162.624 3.55199 169.152 5.47199 173.376 6.24C175.68 6.62399 175.808 7.13599 172.736 9.43999C171.968 10.08 169.92 13.024 165.568 21.216H189.504C216.64 21.216 224.064 21.088 230.336 20.704V32.224C223.936 31.84 217.28 31.712 193.216 31.712V64.096C213.056 63.968 227.52 63.456 239.168 62.816V76C227.52 75.36 213.056 74.976 193.216 74.848V97.504C193.216 103.264 193.728 110.944 194.496 117.984H180.8C181.44 111.84 181.952 103.264 181.952 97.504V74.848C159.168 74.848 143.168 75.232 130.496 76V62.816C143.296 63.584 159.168 64.096 181.952 64.096V31.712ZM306.24 57.824V96.352C306.24 102.624 306.752 110.688 307.52 118.368H294.208C294.976 110.688 295.488 102.624 295.488 96.352V57.824C286.144 57.824 270.528 58.208 264.896 58.976V47.712C269.76 48.48 292.416 48.864 308.16 48.864C327.232 48.864 346.688 48.352 353.088 47.712L351.808 83.552C351.296 97.504 350.656 98.272 328.128 101.728C327.488 96.992 326.336 93.152 323.776 88.928C339.008 91.36 341.312 88.416 341.44 80.096L341.952 57.824H306.24ZM300.48 16.992H324.288C324.288 8.92799 324.16 5.6 323.52 1.88799C326.976 2.39999 332.352 2.656 335.552 2.656C337.088 2.656 337.344 3.67999 336.064 4.448C334.912 5.088 334.656 5.6 334.656 7.13599V16.992C348.992 16.992 361.408 16.736 369.856 15.968V27.232C361.408 26.464 348.992 26.08 334.656 26.08V41.056H324.288V26.08H300.48V40.928H290.112V26.08C276.16 26.08 263.744 26.464 255.296 27.232V15.968C263.872 16.864 276.032 16.992 290.112 16.992C289.984 10.208 289.728 4.83199 289.344 1.75999C292.8 2.272 298.176 2.52799 301.376 2.52799C302.912 2.52799 303.168 3.55199 301.888 4.31999C300.736 4.95999 300.48 5.47199 300.48 7.008V16.992Z" fill="#0076D0"/>
</svg>
