<svg width="371" height="118" viewBox="0 0 371 118" fill="none" xmlns="http://www.w3.org/2000/svg">
<path d="M51.624 55.8V48.248H26.92V55.8H51.624ZM61.224 48.248V55.8H86.952V48.248H61.224ZM51.624 71.544V62.584H26.92V71.544H51.624ZM61.224 62.584V71.544H86.952V62.584H61.224ZM51.624 15.608C35.368 16.888 17.192 17.4 11.816 16.76C11.304 14.2 10.152 10.616 8.36 7.544C32.424 9.71999 74.28 6.64799 90.024 1.656C91.56 5.11199 94.376 8.952 97.32 11.896C99.112 13.688 98.856 14.456 96.296 14.328C87.336 13.688 74.152 13.944 61.224 14.84V25.08C84.648 25.08 100.52 24.696 113.576 23.8V33.4C100.52 32.504 84.648 32.12 61.224 32.12V40.952C78.376 40.952 88.104 40.696 97.576 40.056C97.064 44.92 96.808 52.728 96.808 59.64C96.808 67.192 97.192 74.232 97.576 79.48C88.232 79.096 78.248 78.712 61.224 78.712V86.52C78.76 86.52 90.536 86.136 100.648 85.24V95.096C90.536 94.2 78.76 93.816 61.224 93.816V101.88C84.136 101.88 99.496 101.496 112.296 100.6V111.096C98.728 110.2 82.088 109.816 56.744 109.816C31.4 109.816 14.76 110.2 1.192 111.096V100.6C13.992 101.496 29.096 101.88 51.624 101.88V93.816C34.856 93.944 23.464 94.328 13.608 95.096V85.24C23.464 86.008 34.856 86.392 51.624 86.52V78.712C35.88 78.712 25.768 78.968 16.936 79.352C17.32 74.104 17.576 67.064 17.576 59.64C17.576 52.728 17.32 44.92 16.936 40.056C25.896 40.568 35.88 40.824 51.624 40.952V32.12C28.712 32.12 13.096 32.504 0.168 33.4V23.8C13.096 24.696 28.712 25.08 51.624 25.08V15.608ZM176.168 6.392C172.456 20.728 166.568 37.752 162.472 48.12C170.792 60.024 175.144 70.392 175.144 75.896C175.144 88.696 166.568 93.944 151.848 95.608C151.592 91.256 149.8 85.752 146.728 81.784C159.144 84.728 164.136 81.528 164.136 73.976C164.136 67.832 160.168 59.64 151.72 49.656C155.688 42.36 161.064 27 162.984 17.016H144.424V87.928C144.424 100.728 144.68 108.28 145.448 117.624H133.032C134.184 107.64 134.44 100.344 134.44 87.928V25.336C134.44 19.448 133.928 10.104 133.416 6.52C139.56 7.032 147.496 7.16 154.28 7.16C162.344 7.16 170.664 6.90399 176.168 6.392ZM192.04 99.704V111.352H180.904C181.672 103.16 181.928 96.504 181.928 88.568V22.904C181.928 16.632 181.544 9.71999 181.16 6.392C186.28 7.032 191.528 7.28799 208.936 7.28799C226.344 7.28799 231.976 6.90399 236.968 6.392C236.328 9.976 235.944 15.096 235.944 22.904V91.128C235.944 98.04 236.2 103.8 236.968 110.84H225.448V99.704H192.04ZM225.448 47.608V17.144H192.04V47.608H225.448ZM192.04 57.464V90.104H225.448V57.464H192.04ZM307.24 56.824V95.352C307.24 101.624 307.752 109.688 308.52 117.368H295.208C295.976 109.688 296.488 101.624 296.488 95.352V56.824C287.144 56.824 271.528 57.208 265.896 57.976V46.712C270.76 47.48 293.416 47.864 309.16 47.864C328.232 47.864 347.688 47.352 354.088 46.712L352.808 82.552C352.296 96.504 351.656 97.272 329.128 100.728C328.488 95.992 327.336 92.152 324.776 87.928C340.008 90.36 342.312 87.416 342.44 79.096L342.952 56.824H307.24ZM301.48 15.992H325.288C325.288 7.92799 325.16 4.6 324.52 0.887993C327.976 1.39999 333.352 1.656 336.552 1.656C338.088 1.656 338.344 2.67999 337.064 3.448C335.912 4.088 335.656 4.6 335.656 6.13599V15.992C349.992 15.992 362.408 15.736 370.856 14.968V26.232C362.408 25.464 349.992 25.08 335.656 25.08V40.056H325.288V25.08H301.48V39.928H291.112V25.08C277.16 25.08 264.744 25.464 256.296 26.232V14.968C264.872 15.864 277.032 15.992 291.112 15.992C290.984 9.20799 290.728 3.83199 290.344 0.759995C293.8 1.272 299.176 1.52799 302.376 1.52799C303.912 1.52799 304.168 2.55199 302.888 3.31999C301.736 3.95999 301.48 4.47199 301.48 6.008V15.992Z" fill="#FFE71E"/>
</svg>
